<?xml version="1.0" encoding="utf-8"?>
<!-- Generator: Adobe Illustrator 19.0.1, SVG Export Plug-In . SVG Version: 6.00 Build 0)  -->
<svg version="1.1" id="Layer_1" xmlns="http://www.w3.org/2000/svg" xmlns:xlink="http://www.w3.org/1999/xlink" x="0px" y="0px"
	 viewBox="0 0 182.1 30.5" style="enable-background:new 0 0 182.1 30.5;" xml:space="preserve">
<style type="text/css">
	.st0{fill:#041E41;}
	.st1{fill:#F7A800;}
	.st2{fill:none;}
</style>
<path class="st0" d="M53.1,10.1c-0.7-0.6-2.4-1.3-4-1.3c-3.8,0-6.1,2.7-6.1,6.4c0,3.9,2.7,6.5,6.1,6.5c1.7,0,3-0.5,3.9-1.1l0.8,1.3
	c-1,0.7-2.9,1.4-4.9,1.4c-5.5,0-8.3-3.8-8.3-8c0-3.9,3-7.9,8.6-7.9C51.4,7.2,53,8,54,8.8L53.1,10.1z"/>
<path class="st0" d="M56.8,13.3l0.8-0.8c0.5-0.5,1.2-0.8,1.7-0.8c0.5,0,1.2,0.4,1.8,1.1L60.2,14c-0.5-0.2-1-0.5-1.5-0.5
	c-1,0-1.9,1-1.9,3.5v5.9h-2v-11h1.9V13.3z"/>
<path class="st0" d="M60.4,17.3c0-3.6,2.6-5.6,5.4-5.6c2.8,0,5.5,2.1,5.5,5.6c0,3.4-2.2,5.9-5.5,5.9C62.6,23.2,60.4,20.7,60.4,17.3
	 M62.5,17.3c0,2.1,0.7,4.5,3.3,4.5c2.6,0,3.3-2.4,3.3-4.5c0-2-0.8-4.2-3.3-4.2C63.3,13.1,62.5,15.3,62.5,17.3"/>
<path class="st0" d="M80,11.9c1.1,2.6,2.2,5.3,3.2,8.4h0c0.9-3.2,1.8-5.9,2.6-8.6l1.8,0.3l-3.9,10.9h-1.4c-1.1-2.7-2.2-5.5-3.3-8.6
	h0c-1.1,3.1-2.1,5.9-3.2,8.6h-1.3l-3.8-10.8l1.9-0.5c0.9,2.7,1.8,5.4,2.7,8.6h0c1.1-3.2,2.1-5.8,3.2-8.4H80z"/>
<path class="st0" d="M89.4,17.6c0,2.2,1.5,4.2,3.7,4.2c1,0,2.3-0.4,3-0.9l0.6,1.1c-1.1,0.8-2.5,1.3-3.7,1.3c-3.4,0-5.7-2.1-5.7-6
	c0-3.8,2.7-5.6,5.2-5.6c3.4,0,4.5,3,4.3,5.9H89.4z M95,16.2c0-1.7-0.7-3.2-2.5-3.2c-2.1,0-3,1.8-3,3.2H95z"/>
<polygon class="st0" points="114.8,23 112.7,23 112.7,15.3 105.1,15.3 105.1,23 103,23 103,7.5 105.1,7.5 105.1,13.7 112.7,13.7 
	112.7,7.5 114.8,7.5 "/>
<path class="st0" d="M115.7,17.3c0-3.6,2.6-5.6,5.4-5.6c2.8,0,5.5,2.1,5.5,5.6c0,3.4-2.2,5.9-5.5,5.9
	C117.9,23.2,115.7,20.7,115.7,17.3 M117.8,17.3c0,2.1,0.7,4.5,3.3,4.5c2.6,0,3.3-2.4,3.3-4.5c0-2-0.8-4.2-3.3-4.2
	C118.6,13.1,117.8,15.3,117.8,17.3"/>
<path class="st0" d="M129.2,13.3l0.8-0.8c0.5-0.5,1.2-0.8,1.7-0.8c0.5,0,1.2,0.4,1.8,1.1l-0.9,1.3c-0.5-0.2-1-0.5-1.5-0.5
	c-1,0-1.9,1-1.9,3.5v5.9h-2v-11h1.9V13.3z"/>
<path class="st0" d="M142.3,11.9c1.1,2.6,2.2,5.3,3.2,8.4h0c0.9-3.2,1.8-5.9,2.6-8.6l1.8,0.3l-3.9,10.9h-1.4
	c-1.1-2.7-2.2-5.5-3.3-8.6h0c-1.1,3.1-2.1,5.9-3.2,8.6h-1.3l-3.8-10.8l1.9-0.5c0.9,2.7,1.8,5.4,2.7,8.6h0c1.1-3.2,2.1-5.8,3.2-8.4
	H142.3z"/>
<path class="st0" d="M155.1,21.8c-0.8,0.8-1.7,1.5-2.8,1.5c-1.9,0-3.1-1.3-3.1-3.4c0-1.9,1.6-3.1,3.9-3.8l2.7-0.8
	c-0.1-1.3-1.1-2.2-2.2-2.2c-1.3,0-2.1,0.5-2.9,1.2l-0.8-1c1.1-1.1,2.2-1.5,3.8-1.5c1.7,0,4.1,0.5,4.1,3.7v4.9c0,0.8,0.1,1.9,0.5,2.7
	h-2.2c-0.3-0.5-0.3-1.2-0.3-1.9L155.1,21.8z M153.9,17c-1.7,0.5-2.7,1.4-2.7,2.8c0,1.1,0.8,1.9,1.6,1.9c1.4,0,3.2-1.7,3-5.2
	L153.9,17z"/>
<path class="st0" d="M161.5,11.9h2.9v1.1h-2.9v6.2c0,1.5,0.3,2.5,1.5,2.5c0.7,0,1.1-0.2,1.5-0.4l0.5,1.1c-0.7,0.4-1.5,0.7-2.3,0.7
	c-2.2,0-3.3-1.3-3.3-3.5v-6.6H158v-1.1h1.5V9.3l2-0.7V11.9z"/>
<path class="st0" d="M167.2,13.3c1-1.1,2.6-1.6,3.8-1.6c2.5,0,3.9,1.4,3.9,4.2v7.1h-2v-6.7c0-2.1-0.9-3.2-2.7-3.2
	c-1.6,0-3,1.1-3,3.2v6.6h-2V6.7h2V13.3z"/>
<path class="st1" d="M18.2,1.4c0-0.1-0.1-0.1-0.2-0.1c-0.1,0-0.1,0-0.2,0.1L1.3,29.1c-0.1,0.1-0.1,0.1-0.1,0.2c0,0,0,0,0.1-0.1
	L17.7,9.5c0.1-0.1,0.1-0.1,0.1-0.1c0,0,0,0.1-0.1,0.2L6.4,29.1c-0.1,0.1-0.1,0.1-0.1,0.2c0,0,0.1,0,0.1-0.1L19.8,13
	c0.1-0.1,0.1-0.1,0.1-0.1c0,0,0,0.1-0.1,0.2l-8.8,16.1C11,29.2,11,29.3,11,29.3c0,0,0.1,0,0.1-0.1l10.7-12.9
	c0.1-0.1,0.2-0.1,0.3-0.1c0.1,0,0.2,0,0.2,0.1l10.4,12.9c0.1,0.1,0.1,0.1,0.1,0.1c0,0,0-0.1-0.1-0.2L18.2,1.4z"/>
<path class="st0" d="M175.8,21.6c0-0.7,0.6-1.3,1.3-1.3c0.7,0,1.3,0.6,1.3,1.3c0,0.7-0.6,1.3-1.3,1.3
	C176.4,23,175.8,22.4,175.8,21.6 M178.2,21.6c0-0.6-0.5-1.1-1.1-1.1c-0.6,0-1.1,0.5-1.1,1.1c0,0.6,0.5,1.1,1.1,1.1
	C177.7,22.8,178.2,22.2,178.2,21.6 M176.6,20.9h0.5c0.3,0,0.6,0.1,0.6,0.4c0,0.2-0.1,0.3-0.3,0.4l0.5,0.6l-0.3,0.1l-0.4-0.6h-0.3
	v0.6h-0.3V20.9z M176.9,21.6h0.2c0.3,0,0.4-0.2,0.4-0.3c0-0.2-0.2-0.2-0.3-0.2h-0.2V21.6z"/>
<rect class="st2" width="182.1" height="30.5"/>
</svg>
